HIERARCHY
ROOT joint_Root
{
	OFFSET 0.0 0.0 0.0
	CHANNELS 6 Xposition Yposition Zposition Zrotation Xrotation Yrotation 
	JOINT Hips
	{
		OFFSET 4.5925 91.4895 -427.239
		CHANNELS 6 Xposition Yposition Zposition Zrotation Xrotation Yrotation 
		JOINT Spine
		{
			OFFSET 15.7357 0.0 0.0
			CHANNELS 6 Xposition Yposition Zposition Zrotation Xrotation Yrotation 
			JOINT Chest
			{
				OFFSET 8.98455 -0.406207 0.0
				CHANNELS 6 Xposition Yposition Zposition Zrotation Xrotation Yrotation 
				JOINT Neck
				{
					OFFSET 16.3773 0.0 0.0
					CHANNELS 6 Xposition Yposition Zposition Zrotation Xrotation Yrotation 
					JOINT Head
					{
						OFFSET 6.45672 0.0 0.0
						CHANNELS 6 Xposition Yposition Zposition Zrotation Xrotation Yrotation 
						End Site
						{
							OFFSET 0.0 0.0 0.0
						}
					}
				}
				JOINT Shoulder_L
				{
					OFFSET 12.9942 -0.242716 4.98039
					CHANNELS 6 Xposition Yposition Zposition Zrotation Xrotation Yrotation 
					JOINT UpperArm_L
					{
						OFFSET 5.34809 0.0 0.0
						CHANNELS 6 Xposition Yposition Zposition Zrotation Xrotation Yrotation 
						JOINT LowerArm_L
						{
							OFFSET 24.3286 1.87007e-05 0.0
							CHANNELS 6 Xposition Yposition Zposition Zrotation Xrotation Yrotation 
							JOINT Hand_L
							{
								OFFSET 22.2916 0.0 0.0
								CHANNELS 6 Xposition Yposition Zposition Zrotation Xrotation Yrotation 
								End Site
								{
									OFFSET 0.0 0.0 0.0
								}
							}
						}
					}
				}
				JOINT Shoulder_R
				{
					OFFSET 12.9945 -0.242716 -4.98039
					CHANNELS 6 Xposition Yposition Zposition Zrotation Xrotation Yrotation 
					JOINT UpperArm_R
					{
						OFFSET -5.34813 0.0 0.0
						CHANNELS 6 Xposition Yposition Zposition Zrotation Xrotation Yrotation 
						JOINT LowerArm_R
						{
							OFFSET -24.3289 0.000322201 0.0
							CHANNELS 6 Xposition Yposition Zposition Zrotation Xrotation Yrotation 
							JOINT Hand_R
							{
								OFFSET -22.2915 -0.000108084 0.0
								CHANNELS 6 Xposition Yposition Zposition Zrotation Xrotation Yrotation 
								End Site
								{
									OFFSET 0.0 0.0 0.0
								}
							}
						}
					}
				}
			}
		}
		JOINT UpperLeg_L
		{
			OFFSET -2.19248 -6.46944 0.0
			CHANNELS 6 Xposition Yposition Zposition Zrotation Xrotation Yrotation 
			JOINT LowerLeg_L
			{
				OFFSET 39.0811 0.0 -1.23785e-05
				CHANNELS 6 Xposition Yposition Zposition Zrotation Xrotation Yrotation 
				JOINT Foot_L
				{
					OFFSET 40.9854 0.0 -1.26872e-05
					CHANNELS 6 Xposition Yposition Zposition Zrotation Xrotation Yrotation 
					JOINT Toes_L
					{
						OFFSET 11.7543 0.0 0.0
						CHANNELS 6 Xposition Yposition Zposition Zrotation Xrotation Yrotation 
						End Site
						{
							OFFSET 0.0 0.0 0.0
						}
					}
				}
			}
		}
		JOINT UpperLeg_R
		{
			OFFSET -2.19251 6.46944 0.0
			CHANNELS 6 Xposition Yposition Zposition Zrotation Xrotation Yrotation 
			JOINT LowerLeg_R
			{
				OFFSET -39.0811 -0.00228153 -0.0401928
				CHANNELS 6 Xposition Yposition Zposition Zrotation Xrotation Yrotation 
				JOINT Foot_R
				{
					OFFSET -40.9854 0.0 0.0
					CHANNELS 6 Xposition Yposition Zposition Zrotation Xrotation Yrotation 
					JOINT Toes_R
					{
						OFFSET -11.7543 0.0 0.0
						CHANNELS 6 Xposition Yposition Zposition Zrotation Xrotation Yrotation 
						End Site
						{
							OFFSET 0.0 0.0 0.0
						}
					}
				}
			}
		}
	}
}
MOTION
Frames:	6
Frame Time:	0.0333333
0.000000 0.000000 0.000000 0.000000 0.000000 -0.000000 5.629540 80.299300 411.221000 -93.679300 -4.600960 167.268000 15.735700 0.000005 -0.000001 84.915700 79.537600 -88.450300 8.984550 -0.406207 -0.000000 13.029600 -1.997810 -6.841700 16.377300 -0.000001 -0.000001 -3.908220 -5.374080 1.555120 6.456720 -0.000001 -0.000000 -13.969900 -6.793160 7.346310 12.994200 -0.242716 4.980390 -91.987400 7.871590 -75.781900 5.348090 -0.000007 -0.000001 -68.339700 -7.731790 -8.324280 24.328600 0.000019 0.000005 2.579250 0.865756 -71.537300 22.291600 -0.000001 0.000005 13.203000 5.422620 -3.685360 12.994500 -0.242716 -4.980390 88.354400 12.593600 -82.493800 -5.348130 -0.000001 -0.000004 -62.080700 18.564000 -4.687650 -24.328900 0.000322 -0.000009 -13.019700 -20.714300 -33.177200 -22.291500 -0.000108 -0.000004 15.962800 5.522260 -7.464110 -2.192480 -6.469440 -0.000000 168.464000 -1.835080 -40.742200 39.081100 -0.000007 -0.000012 -0.183764 0.086884 64.696500 40.985400 -0.000006 -0.000013 6.581430 -4.821070 -86.813800 11.754300 -0.000000 0.000003 -0.000190 -0.001776 -16.644600 -2.192510 6.469440 -0.000001 174.414000 10.777000 150.927000 -39.081100 -0.002282 -0.040193 0.092107 0.041000 114.837000 -40.985400 0.000008 0.000006 -0.247756 3.301310 -28.665900 -11.754300 -0.000006 -0.000006 -0.026517 -0.201031 -24.801100
0.000000 0.000000 0.000000 0.000000 0.000000 -0.000000 6.068540 78.995300 403.854000 -93.014400 -8.592420 166.500000 15.735700 0.000005 -0.000001 81.077300 79.804200 -83.677300 8.984550 -0.406207 -0.000000 12.324100 -3.236990 -4.850550 16.377300 -0.000001 -0.000001 -4.918670 -5.879950 1.253320 6.456720 -0.000001 -0.000000 -13.556900 -6.570410 7.262460 12.994200 -0.242716 4.980390 -91.355600 6.467280 -78.142500 5.348090 -0.000007 -0.000001 -71.127700 -0.950747 -28.593900 24.328600 0.000019 0.000005 2.368550 0.511516 -77.722800 22.291600 -0.000001 0.000005 11.515100 5.444060 -4.439010 12.994500 -0.242716 -4.980390 88.370400 11.238900 -81.693300 -5.348130 -0.000001 -0.000004 -64.551500 16.815000 7.764640 -24.328900 0.000322 -0.000009 -3.538170 -10.399500 -18.873500 -22.291500 -0.000108 -0.000004 9.856020 5.457850 -4.895880 -2.192480 -6.469440 -0.000000 171.130000 0.008374 -35.811400 39.081100 -0.000007 -0.000012 -0.141846 0.062525 66.214200 40.985400 -0.000006 -0.000013 5.806190 -3.474220 -93.652400 11.754300 -0.000000 0.000003 -0.000257 -0.002285 -16.663100 -2.192510 6.469440 -0.000001 178.259000 10.397000 132.508000 -39.081100 -0.002282 -0.040193 -0.207806 -0.168785 128.623000 -40.985400 0.000008 0.000006 2.735840 0.647266 -27.905100 -11.754300 -0.000006 -0.000006 -0.024229 -0.189678 -24.331600
0.000000 0.000000 0.000000 0.000000 0.000000 -0.000000 6.841390 79.260400 395.186000 -90.855400 -12.838200 165.285000 15.735700 0.000005 -0.000001 71.565100 80.383500 -72.806900 8.984550 -0.406207 -0.000000 10.457900 -6.069430 -1.927660 16.377300 -0.000001 -0.000001 -4.712320 -5.495960 1.177040 6.456720 -0.000001 -0.000000 -12.436000 -4.706940 8.046300 12.994200 -0.242716 4.980390 -90.256100 1.392280 -79.569000 5.348090 -0.000007 -0.000001 -71.254800 2.663480 -42.851900 24.328600 0.000019 0.000005 5.704430 0.268011 -87.345500 22.291600 -0.000001 0.000005 8.225530 5.452000 -4.719480 12.994500 -0.242716 -4.980390 88.215900 8.911100 -78.625200 -5.348130 -0.000001 -0.000004 -66.551100 22.132300 20.833900 -24.328900 0.000322 -0.000009 1.093520 2.612450 -22.796700 -22.291500 -0.000108 -0.000004 7.879060 5.508230 -6.904970 -2.192480 -6.469440 -0.000000 176.493000 0.207716 -28.082100 39.081100 -0.000007 -0.000012 -0.204225 0.111899 61.282000 40.985400 -0.000006 -0.000013 5.522130 0.133889 -98.062000 11.754300 -0.000000 0.000003 -0.000181 -0.001702 -16.641900 -2.192510 6.469440 -0.000001 -175.917000 10.056900 118.636000 -39.081100 -0.002282 -0.040193 -0.403765 -0.365008 131.872000 -40.985400 0.000008 0.000006 9.228440 -5.884630 -33.894100 -11.754300 -0.000006 -0.000006 -0.019711 -0.165682 -23.341700
0.000000 0.000000 0.000000 0.000000 0.000000 -0.000000 7.685060 81.440800 384.806000 -87.416700 -15.055300 165.268000 15.735700 0.000005 -0.000001 61.149400 80.534200 -60.742100 8.984550 -0.406207 -0.000000 8.931930 -9.084110 1.526230 16.377300 -0.000001 -0.000001 -3.952760 -4.753900 0.761422 6.456720 -0.000001 -0.000000 -11.221700 -2.007690 7.503380 12.994200 -0.242716 4.980390 -89.414900 -2.994860 -78.955900 5.348090 -0.000007 -0.000001 -68.842400 2.455430 -50.404400 24.328600 0.000019 0.000005 2.609680 -0.303602 -96.765000 22.291600 -0.000001 0.000005 8.230900 5.462470 -5.090410 12.994500 -0.242716 -4.980390 88.358000 6.306100 -75.362700 -5.348130 -0.000001 -0.000004 -68.325600 30.481900 30.922600 -24.328900 0.000322 -0.000009 -2.130970 -3.572610 -30.775300 -22.291500 -0.000108 -0.000004 5.598160 5.548060 -8.626960 -2.192480 -6.469440 -0.000000 -176.840000 -0.562997 -14.737400 39.081100 -0.000007 -0.000012 0.000590 -0.000556 46.548700 40.985400 -0.000006 -0.000013 5.332360 3.034270 -95.686000 11.754300 -0.000000 0.000003 -0.786534 -0.960757 -18.229000 -2.192510 6.469440 -0.000001 -171.248000 5.981720 113.721000 -39.081100 -0.002282 -0.040193 -0.308088 -0.216696 124.820000 -40.985400 0.000008 0.000006 12.067700 -10.793700 -44.177600 -11.754300 -0.000006 -0.000006 -0.021735 -0.176717 -23.796500
0.000000 0.000000 0.000000 0.000000 0.000000 -0.000000 8.249220 84.951700 374.060000 -83.099200 -15.501400 163.711000 15.735700 0.000005 -0.000001 50.215000 81.163300 -47.929800 8.984550 -0.406207 -0.000000 6.138960 -11.311900 5.185310 16.377300 -0.000001 -0.000001 -2.551160 -3.686950 0.488855 6.456720 -0.000001 -0.000000 -9.173630 0.712591 6.330380 12.994200 -0.242716 4.980390 -88.488000 -6.779400 -77.400300 5.348090 -0.000007 -0.000001 -67.277500 1.742500 -51.449300 24.328600 0.000019 0.000005 0.004839 -0.001619 -103.859000 22.291600 -0.000001 0.000005 8.229160 5.454120 -4.777130 12.994500 -0.242716 -4.980390 89.376200 2.118870 -73.571300 -5.348130 -0.000001 -0.000004 -69.660600 31.855600 36.759400 -24.328900 0.000322 -0.000009 -0.840395 -1.136230 -36.627700 -22.291500 -0.000108 -0.000004 3.878070 5.548990 -8.658690 -2.192480 -6.469440 -0.000000 -170.461000 -0.351198 -6.450080 39.081100 -0.000007 -0.000012 -0.005955 0.008757 34.221500 40.985400 -0.000006 -0.000013 2.690650 4.650520 -77.275400 11.754300 -0.000000 0.000003 -0.085802 -0.407882 -33.536900 -2.192510 6.469440 -0.000001 -168.718000 -0.104941 111.055000 -39.081100 -0.002282 -0.040193 -0.032636 -0.013700 110.726000 -40.985400 0.000008 0.000006 9.547580 -12.574500 -53.692100 -11.754300 -0.000006 -0.000006 -0.017306 -0.151878 -22.773600
0.000000 0.000000 0.000000 0.000000 0.000000 -0.000000 8.368300 88.870800 363.848000 -81.630200 -15.491100 161.254000 15.735700 0.000005 -0.000001 39.500600 81.448700 -36.108000 8.984550 -0.406207 -0.000000 3.600820 -13.305000 7.222060 16.377300 -0.000001 -0.000001 -1.283530 -2.749230 0.360595 6.456720 -0.000001 -0.000000 -7.924780 3.131650 5.333620 12.994200 -0.242716 4.980390 -87.880200 -8.762560 -76.344400 5.348090 -0.000007 -0.000001 -66.307600 1.929290 -50.329400 24.328600 0.000019 0.000005 2.428110 -0.818841 -108.595000 22.291600 -0.000001 0.000005 6.009940 5.431060 -3.970020 12.994500 -0.242716 -4.980390 90.555700 -1.758470 -72.473500 -5.348130 -0.000001 -0.000004 -70.563700 30.454200 39.240300 -24.328900 0.000322 -0.000009 1.663050 1.916530 -40.975800 -22.291500 -0.000108 -0.000004 4.811680 5.561370 -9.247580 -2.192480 -6.469440 -0.000000 -166.739000 -6.748690 -2.985700 39.081100 -0.000007 -0.000012 0.013156 -0.027356 25.683600 40.985400 -0.000006 -0.000013 -0.124396 10.035200 -50.335700 11.754300 -0.000000 0.000003 -0.210152 -0.661717 -45.016000 -2.192510 6.469440 -0.000001 -169.588000 -3.490150 110.644000 -39.081100 -0.002282 -0.040193 0.127506 0.003746 91.767400 -40.985400 0.000008 0.000006 8.813350 -13.846700 -59.526500 -11.754300 -0.000006 -0.000006 -0.018994 -0.161654 -23.175800
